<svg width="20" height="14" viewBox="0 0 20 14" fill="none" xmlns="http://www.w3.org/2000/svg">
<path fill-rule="evenodd" clip-rule="evenodd" d="M4.74509 10.13C3.34053 8.98485 2.33731 7.67602 1.86666 7C2.33731 6.32398 3.34053 5.01513 4.74509 3.87007C6.19521 2.68787 7.98576 1.75 9.99997 1.75C12.0142 1.75 13.8048 2.68787 15.2549 3.87007C16.6595 5.01513 17.6627 6.32398 18.1334 7C17.6627 7.67602 16.6595 8.98485 15.2549 10.13C13.8048 11.3122 12.0142 12.25 9.99997 12.25C7.98576 12.25 6.19521 11.3122 4.74509 10.13ZM9.99997 0C7.36959 0 5.16532 1.22029 3.54321 2.54271C1.91522 3.86992 0.785491 5.3704 0.28412 6.09858C-0.0947067 6.64869 -0.0947067 7.35131 0.28412 7.90142C0.785491 8.6296 1.91522 10.1301 3.54321 11.4573C5.16532 12.7797 7.36959 14 9.99997 14C12.6304 14 14.8347 12.7797 16.4568 11.4573C18.0848 10.1301 19.2145 8.6296 19.7159 7.90142C20.0947 7.35131 20.0947 6.64869 19.7159 6.09858C19.2145 5.3704 18.0848 3.86992 16.4568 2.54271C14.8347 1.22029 12.6304 0 9.99997 0ZM8.15568 7C8.15568 6.03348 8.98146 5.25 9.99997 5.25C11.0186 5.25 11.8443 6.03348 11.8443 7C11.8443 7.96652 11.0186 8.75 9.99997 8.75C8.98146 8.75 8.15568 7.96652 8.15568 7ZM9.99997 3.5C7.96286 3.5 6.31142 5.067 6.31142 7C6.31142 8.93296 7.96286 10.5 9.99997 10.5C12.0372 10.5 13.6886 8.93296 13.6886 7C13.6886 5.067 12.0372 3.5 9.99997 3.5Z" fill="#403F3D"/>
</svg>
