<svg width="20" height="20" viewBox="0 0 20 20" fill="none" xmlns="http://www.w3.org/2000/svg">
<path fill-rule="evenodd" clip-rule="evenodd" d="M17.107 4.49372C17.4671 4.15201 17.4671 3.59799 17.107 3.25628C16.7469 2.91457 16.163 2.91457 15.8029 3.25628L11.8738 6.98459C11.3246 6.67669 10.684 6.5 9.99997 6.5C7.96282 6.5 6.31139 8.067 6.31139 10C6.31139 10.6491 6.49759 11.2569 6.82209 11.778L2.89289 15.5063C2.53277 15.848 2.53277 16.402 2.89289 16.7437C3.25302 17.0854 3.83688 17.0854 4.19701 16.7437L8.1262 13.0154C8.67531 13.3233 9.31592 13.5 9.99997 13.5C12.0371 13.5 13.6886 11.933 13.6886 10C13.6886 9.35093 13.5024 8.74306 13.1779 8.22203L17.107 4.49372ZM10.4776 8.30924C10.3253 8.27065 10.1652 8.25 9.99997 8.25C8.98137 8.25 8.15568 9.03348 8.15568 10C8.15568 10.1568 8.17744 10.3087 8.21811 10.4532L10.4776 8.30924ZM9.5223 11.6908L11.7818 9.54675C11.8225 9.6913 11.8443 9.8432 11.8443 10C11.8443 10.9665 11.0186 11.75 9.99997 11.75C9.83472 11.75 9.67464 11.7293 9.5223 11.6908ZM13.4719 3.71811C12.424 3.28043 11.261 3 9.99997 3C7.36959 3 5.16532 4.22029 3.54321 5.54271C1.91522 6.86991 0.785491 8.3704 0.28412 9.09857C-0.0947067 9.64869 -0.0947067 10.3513 0.28412 10.9014C0.707284 11.516 1.57807 12.6807 2.81824 13.8272L4.12245 12.5897C3.04284 11.595 2.26449 10.5715 1.86666 10C2.33731 9.32398 3.34053 8.01513 4.74509 6.87007C6.19521 5.68787 7.98576 4.75 9.99997 4.75C10.7118 4.75 11.3956 4.86712 12.0465 5.07076L13.4719 3.71811ZM9.99997 15.25C9.28826 15.25 8.6044 15.1328 7.95357 14.9292L6.52805 16.2819C7.57598 16.7196 8.73903 17 9.99997 17C12.6304 17 14.8347 15.7797 16.4568 14.4573C18.0848 13.1301 19.2145 11.6296 19.7159 10.9014C20.0947 10.3513 20.0947 9.64869 19.7159 9.09857C19.2927 8.48397 18.4219 7.31924 17.1817 6.17285L15.8775 7.41038C16.9572 8.40496 17.7356 9.42854 18.1334 10C17.6627 10.676 16.6595 11.9848 15.2549 13.13C13.8048 14.3122 12.0142 15.25 9.99997 15.25Z" fill="#403F3D"/>
</svg>
