<svg width="20" height="20" viewBox="0 0 20 20" fill="none" xmlns="http://www.w3.org/2000/svg">
<path d="M4.375 6C4.375 2.75576 7.2549 0.149223 10.6777 0.539062H10.6787C13.1507 0.820594 15.1917 2.7533 15.5586 5.14551C15.8765 7.21675 15.0145 9.10723 13.5273 10.2803L12.8262 10.834L13.6641 11.1426C16.5679 12.2118 18.7643 14.56 19.4678 17.7441C19.6614 18.6185 18.9378 19.5 17.9453 19.5H2.05371C1.12441 19.4999 0.430578 18.725 0.506836 17.9072L0.532227 17.7441C1.23667 14.5601 3.43147 12.2119 6.33594 11.1426L7.1748 10.833L6.47363 10.2803C5.19213 9.27026 4.375 7.72766 4.375 6ZM10 11.5C6.55933 11.5 3.53551 13.1804 2.14453 16.1758L2.01465 16.4697C1.59254 17.4853 2.42586 18.5 3.43848 18.5H16.5625C17.5751 18.5 18.4084 17.4853 17.9863 16.4697H17.9854C16.6595 13.2907 13.5525 11.5001 10 11.5ZM10 1.5C7.48284 1.5 5.41699 3.50812 5.41699 6C5.417 8.49187 7.48284 10.5 10 10.5C12.5182 10.4999 14.583 8.49174 14.583 6C14.583 3.50825 12.5182 1.50008 10 1.5Z" fill="#403F3D" stroke="#403F3D"/>
</svg>
