<svg width="320" height="197" viewBox="0 0 320 197" fill="none" xmlns="http://www.w3.org/2000/svg">
<path d="M301.618 196.089H18.3822C8.23111 196.089 0 187.957 0 177.929V18.1596C0 8.13144 8.23111 0 18.3822 0H301.618C311.769 0 320 8.13144 320 18.1596V177.926C320 187.957 311.769 196.089 301.618 196.089Z" fill="#363B38"/>
<path d="M301.617 0H296.625V82.6526C296.625 138.926 250.449 184.543 193.486 184.543H1.30078C3.98167 191.294 10.5986 196.089 18.3817 196.089H301.617C311.768 196.089 319.999 187.957 319.999 177.929V18.1596C319.999 8.13144 311.768 0 301.617 0Z" fill="#2E322F"/>
<path d="M67.4557 63.8748H28.1988C24.0282 63.8748 20.6504 60.5344 20.6504 56.4178V35.536C20.6504 31.4158 24.0317 28.0789 28.1988 28.0789H67.4557C71.6264 28.0789 75.0042 31.4193 75.0042 35.536V56.4178C75.0042 60.5344 71.6264 63.8748 67.4557 63.8748Z" fill="#EAA500"/>
<path d="M70.7014 101.964H24.952C22.7582 101.964 20.9805 100.212 20.9805 98.041C20.9805 95.8702 22.7582 94.1175 24.952 94.1175H70.7049C72.8987 94.1175 74.6765 95.8702 74.6765 98.041C74.6765 100.212 72.8951 101.964 70.7014 101.964Z" fill="#545C56"/>
<path d="M137.543 101.964H91.7938C89.6 101.964 87.8223 100.212 87.8223 98.041C87.8223 95.8702 89.6 94.1175 91.7938 94.1175H137.547C139.74 94.1175 141.518 95.8702 141.518 98.041C141.518 100.212 139.737 101.964 137.543 101.964Z" fill="#545C56"/>
<path d="M204.388 101.964H158.632C156.438 101.964 154.66 100.212 154.66 98.041C154.66 95.8702 156.434 94.1175 158.632 94.1175H204.388C206.582 94.1175 208.36 95.8702 208.36 98.041C208.36 100.212 206.582 101.964 204.388 101.964Z" fill="#545C56"/>
<path d="M271.228 101.964H225.472C223.278 101.964 221.5 100.212 221.5 98.041C221.5 95.8702 223.274 94.1175 225.472 94.1175H271.228C273.422 94.1175 275.2 95.8702 275.2 98.041C275.2 100.212 273.422 101.964 271.228 101.964Z" fill="#545C56"/>
<path d="M110.406 168.642H24.952C22.7582 168.642 20.9805 166.889 20.9805 164.719C20.9805 162.551 22.7582 160.795 24.952 160.795H110.406C112.6 160.795 114.378 162.548 114.378 164.719C114.378 166.889 112.6 168.642 110.406 168.642Z" fill="#545C56"/>
<path d="M110.408 145.108H80.538C78.3442 145.108 76.5664 143.356 76.5664 141.185C76.5664 139.014 78.3442 137.262 80.538 137.262H110.408C112.602 137.262 114.38 139.014 114.38 141.185C114.38 143.356 112.602 145.108 110.408 145.108Z" fill="#545C56"/>
<path d="M261.896 134.775C256.278 134.775 251.321 137.353 248.001 141.315C244.676 137.353 239.72 134.775 234.105 134.775C224.1 134.775 215.986 142.79 215.986 152.674C215.986 162.558 224.1 170.574 234.105 170.574C239.723 170.574 244.68 167.996 248.001 164.034C251.325 167.996 256.281 170.574 261.896 170.574C271.901 170.574 280.015 162.558 280.015 152.674C280.015 142.787 271.901 134.775 261.896 134.775Z" fill="#545C56"/>
<path d="M251.264 167.062C254.243 169.246 257.895 170.571 261.895 170.571C271.9 170.571 280.014 162.555 280.014 152.671C280.014 148.934 278.848 145.47 276.867 142.601C269.827 152.14 261.169 160.433 251.264 167.062Z" fill="#494F4A"/>
</svg>
